<?xml version="1.0" encoding="utf-8"?>
<!-- Generator: Adobe Illustrator 21.0.0, SVG Export Plug-In . SVG Version: 6.00 Build 0)  -->
<svg version="1.1" id="Layer_1" xmlns="http://www.w3.org/2000/svg" xmlns:xlink="http://www.w3.org/1999/xlink" x="0px" y="0px"
	 viewBox="0 0 792 612" style="enable-background:new 0 0 792 612;" xml:space="preserve">
<style type="text/css">
	.st0{opacity:0.15;}
	.st1{fill:#0050FF;}
	.st2{fill:#231F20;}
</style>
<g>
	<path class="st0" d="M288.6,350.6c-24,0-43.6-19.5-43.6-43.6c0-24,19.5-43.6,43.6-43.6s43.6,19.5,43.6,43.6
		C332.1,331,312.6,350.6,288.6,350.6z M288.6,266.8c-22.2,0-40.2,18-40.2,40.2c0,22.2,18,40.2,40.2,40.2s40.2-18,40.2-40.2
		C328.8,284.9,310.7,266.8,288.6,266.8z"/>
	<path class="st1" d="M288.6,350.6c-24,0-43.6-19.5-43.6-43.6c0-24,19.5-43.6,43.6-43.6c12.1,0,23.7,5.1,31.9,13.9l-2.5,2.3
		c-7.6-8.2-18.3-12.8-29.4-12.8c-22.2,0-40.2,18-40.2,40.2c0,22.2,18,40.2,40.2,40.2c11.1,0,21.8-4.7,29.4-12.8l2.5,2.3
		C312.2,345.5,300.6,350.6,288.6,350.6z"/>
	<polygon class="st1" points="303.9,309.1 286.8,309.1 286.8,282.9 290.2,282.9 290.2,305.7 303.9,305.7 	"/>
	<g>
		<path class="st2" d="M358.7,286.2c0.1-6.8,5.1-11.4,11.4-11.3c4,0,6.7,2,8.4,4.5l-2.3,1.3c-1.2-1.9-3.5-3.2-6.1-3.3
			c-4.7-0.1-8.4,3.6-8.5,8.9c-0.1,5.2,3.6,9,8.3,9.1c2.6,0,4.9-1.3,6.2-3.1l2.3,1.3c-1.9,2.5-4.5,4.3-8.6,4.3
			C363.5,297.7,358.6,293,358.7,286.2z"/>
		<path class="st2" d="M407.5,287.6l-12.9-0.1l-0.1,10.1l-2.7,0l0.2-22.1l2.7,0l-0.1,9.5l12.9,0.1l0.1-9.5l2.7,0l-0.2,22.1l-2.7,0
			L407.5,287.6z"/>
		<path class="st2" d="M432.5,289.3l-4.4,0L428,298l-2.7,0l0.2-22.1l8.9,0.1c4,0,6.9,2.7,6.8,6.7c0,4-2.8,6.1-5.8,6.4l5.9,9.1
			l-3.2,0L432.5,289.3z M434,278.4l-5.8-0.1l-0.1,8.4l5.8,0.1c2.6,0,4.4-1.7,4.4-4.2C438.4,280.2,436.6,278.4,434,278.4z"/>
		<path class="st2" d="M465.6,275.9c6.5,0.1,10.9,5,10.8,11.5c-0.1,6.5-4.6,11.4-11.1,11.3c-6.6-0.1-10.9-5-10.8-11.5
			C454.6,280.7,459,275.9,465.6,275.9z M465.6,278.4c-5-0.1-8.2,3.7-8.2,8.9c-0.1,5.1,3,9,8,9.1c4.9,0.1,8.2-3.8,8.2-8.9
			C473.6,282.3,470.5,278.4,465.6,278.4z"/>
		<path class="st2" d="M493.5,280.9l-0.2,17.8l-2.7,0l0.2-22.1l2.8,0l12.5,17.6l0.2-17.4l2.7,0l-0.2,22.1l-2.6,0L493.5,280.9z"/>
		<path class="st2" d="M534.2,276.7c6.5,0.1,10.9,5,10.8,11.5c-0.1,6.5-4.6,11.4-11.1,11.3c-6.6-0.1-10.9-5-10.8-11.5
			C523.2,281.5,527.6,276.6,534.2,276.7z M534.1,279.1c-5-0.1-8.2,3.7-8.2,8.9c-0.1,5.1,3,9,8,9.1c4.9,0.1,8.2-3.8,8.2-8.9
			C542.2,283,539.1,279.2,534.1,279.1z"/>
	</g>
	<g>
		<path class="st2" d="M359.2,314.9l2.7,0l-0.2,19.6l10.3,0.1l0,2.4l-13-0.1L359.2,314.9z"/>
		<path class="st2" d="M395,314.9c6.5,0.1,10.9,5,10.8,11.5c-0.1,6.5-4.6,11.4-11.1,11.3c-6.6-0.1-10.9-5-10.8-11.5
			C384,319.7,388.4,314.8,395,314.9z M395,317.4c-5-0.1-8.1,3.7-8.2,8.9c-0.1,5.1,3.1,9,8,9.1c4.9,0.1,8.2-3.8,8.2-8.9
			C403,321.3,399.9,317.4,395,317.4z"/>
		<path class="st2" d="M430.6,315.3c3.9,0,6.6,1.8,8.5,4.2l-2.2,1.3c-1.4-1.8-3.7-3.1-6.4-3.1c-4.8-0.1-8.5,3.6-8.6,8.9
			c-0.1,5.2,3.6,9,8.4,9.1c2.6,0,4.8-1.2,5.9-2.3l0-4.5l-7.6-0.1l0-2.5l10.3,0.1l-0.1,8c-2.1,2.3-5.1,3.8-8.7,3.7
			c-6.3-0.1-11.3-4.7-11.2-11.6C419.2,319.7,424.3,315.2,430.6,315.3z"/>
		<path class="st2" d="M453.7,315.9l2.7,0l-0.2,22.1l-2.7,0L453.7,315.9z"/>
		<path class="st2" d="M470.5,327.1c0.1-6.8,5.1-11.4,11.4-11.3c4,0,6.7,2,8.4,4.5l-2.3,1.3c-1.2-1.9-3.5-3.2-6.1-3.3
			c-4.7-0.1-8.4,3.6-8.5,8.9c-0.1,5.2,3.6,9,8.3,9.1c2.6,0,4.9-1.3,6.2-3.1l2.3,1.3c-1.9,2.5-4.5,4.3-8.6,4.3
			C475.3,338.6,470.4,333.9,470.5,327.1z"/>
	</g>
</g>
</svg>
