<?xml version="1.0" standalone="no"?>
<!DOCTYPE svg PUBLIC "-//W3C//DTD SVG 20010904//EN"
 "http://www.w3.org/TR/2001/REC-SVG-20010904/DTD/svg10.dtd">
<svg version="1.0" xmlns="http://www.w3.org/2000/svg"
 width="300.000000pt" height="300.000000pt" viewBox="0 0 300.000000 300.000000"
 preserveAspectRatio="xMidYMid meet">
<metadata>
Created by potrace 1.11, written by Peter Selinger 2001-2013
</metadata>
<g transform="translate(0.000000,300.000000) scale(0.100000,-0.100000)"
fill="#000000" stroke="none">
<path d="M1295 2623 c-185 -33 -401 -132 -522 -238 -273 -241 -412 -535 -411
-875 0 -418 222 -790 592 -994 259 -143 603 -174 886 -80 197 66 462 245 466
314 1 11 -1 18 -4 15 -3 -3 -15 4 -27 15 l-22 21 -29 -29 c-123 -122 -304
-225 -469 -267 -38 -9 -78 -19 -89 -22 -12 -3 -79 -7 -151 -9 -231 -6 -413 46
-602 172 -217 145 -396 404 -438 636 -3 13 -9 46 -14 73 -16 84 -11 261 11
365 73 354 340 659 679 774 283 96 606 64 860 -84 60 -35 199 -139 199 -149 0
-3 11 -13 23 -23 22 -15 25 -15 55 11 l31 28 -32 33 c-149 153 -379 273 -607
315 -73 14 -305 13 -385 -2z"/>
<path d="M2393 2135 c0 -8 4 -12 9 -9 5 3 6 10 3 15 -9 13 -12 11 -12 -6z"/>
<path d="M1452 2130 c-5 -3 -8 -156 -8 -340 l0 -336 220 1 221 0 1 43 c1 25
-3 42 -10 43 -6 0 -85 1 -176 2 l-165 2 -2 289 c-1 159 -5 291 -8 294 -8 8
-63 10 -73 2z"/>
<path d="M2430 961 c0 -6 4 -13 10 -16 6 -3 7 1 4 9 -7 18 -14 21 -14 7z"/>
</g>
</svg>
