<?xml version="1.0" encoding="utf-8"?>
<!-- Generator: Adobe Illustrator 23.0.1, SVG Export Plug-In . SVG Version: 6.00 Build 0)  -->
<svg version="1.1" id="Layer_1" xmlns="http://www.w3.org/2000/svg" xmlns:xlink="http://www.w3.org/1999/xlink" x="0px" y="0px"
	 viewBox="0 0 110 110" style="enable-background:new 0 0 110 110;" xml:space="preserve">
<style type="text/css">
	.st0{fill:#FFFFFF;}
</style>
<g>
	<path class="st0" d="M21.1,31.9H8.7C7.8,31.7,7.2,31,7,30l3.1-1.1h10.1L21.1,31.9z M7.1,29.3l1-9.7L9,18.8l2,2.2l-0.7,7.1L7.1,29.3
		z M12.3,8.7l-0.7,7.1L9,18.1l-0.6-0.7l1-9.7L12.3,8.7z M22.4,8H12.4L9.5,6.9c0.3-1,1-1.6,2.1-1.9h12.3L22.4,8z M21.1,17l1.3,1.5
		L20.8,20h-9.7l-1.3-1.5l1.7-1.5H21.1z"/>
	<path class="st0" d="M31.8,8l-2.9-1.1c0.3-1,1-1.6,2.1-1.9h11.9c1,0.2,1.5,0.9,1.7,1.9L41.5,8H31.8z M35.5,18.8l1.3,1.5l-1,9.7
		c-0.3,1-1,1.6-2.1,1.9l-0.8-3l0.9-8.6L35.5,18.8z M34.3,16.6l0.8-7.8h3l-0.8,7.8l-1.7,1.5L34.3,16.6z"/>
	<path class="st0" d="M49.8,21.1L49,28.9l-1.4,3c-1-0.2-1.5-0.9-1.7-1.9L47,19.6l0.8-0.7L49.8,21.1z M47.9,18.5l-0.6-0.7l1.1-10.5
		c0.3-1,1-1.6,2.1-1.9l0.8,3l-0.8,7.8L47.9,18.5z M60,17l1.3,1.5L59.7,20H50l-1.3-1.5l1.7-1.5H60z M62,18.8l0.7,0.7L61.6,30
		c-0.3,1-1,1.6-2.1,1.9l-0.8-3l0.8-7.8L62,18.8z M60.1,15.8L60.9,8l1.4-3c1,0.2,1.5,0.9,1.7,1.9L63,17.3l-0.9,0.7L60.1,15.8z"/>
	<path class="st0" d="M75.1,25.9h-3l0.3-3h3L75.1,25.9z M76.4,14h-3l0.3-3h3L76.4,14z"/>
	<path class="st0" d="M11,57.6l-0.8,7.8l-1.4,3c-1-0.2-1.5-0.9-1.7-1.9l1.1-10.5L9,55.4L11,57.6z M12.3,45.3l-0.7,7.1L9,54.6
		l-0.6-0.7l1-9.7L12.3,45.3z M21.3,44.5h-8.9l-2.9-1.1c0.3-1,1-1.6,2.1-1.9h11.2L21.3,44.5z M21.1,53.5l1.3,1.5l-1.6,1.5h-9.7
		L9.7,55l1.7-1.5H21.1z M23.2,55.4l0.7,0.7l-1.1,10.5c-0.3,1-1,1.6-2.1,1.9l-0.8-3l0.8-7.8L23.2,55.4z M21.3,52.4l0.8-7.8l1.4-3
		c1,0.2,1.5,0.9,1.7,1.9l-1.1,10.5l-0.9,0.7L21.3,52.4z"/>
	<path class="st0" d="M30.4,57.6l-0.8,7.8l-1.4,3c-1-0.2-1.5-0.9-1.7-1.9l1.1-10.5l0.8-0.7L30.4,57.6z M28.5,54.6l-0.6-0.7l1.1-10.5
		c0.3-1,1-1.6,2.1-1.9l0.8,3L31,52.4L28.5,54.6z M30.3,65.5h9l2.9,1.1c-0.3,1-1,1.6-2.1,1.9H28.9L30.3,65.5z"/>
	<path class="st0" d="M49.8,57.6L49,65.5l-1.4,3c-1-0.2-1.5-0.9-1.7-1.9L47,56.1l0.8-0.7L49.8,57.6z M51.1,45.3l-0.7,7.1l-2.5,2.2
		l-0.6-0.7l1-9.7L51.1,45.3z M60.2,44.5h-8.9l-2.9-1.1c0.3-1,1-1.6,2.1-1.9h11.2L60.2,44.5z M60,53.5l1.3,1.5l-1.6,1.5H50L48.6,55
		l1.7-1.5H60z M62,55.4l0.7,0.7l-1.1,10.5c-0.3,1-1,1.6-2.1,1.9l-0.8-3l0.8-7.8L62,55.4z M60.1,52.4l0.8-7.8l1.4-3
		c1,0.2,1.5,0.9,1.7,1.9L63,53.9l-0.9,0.7L60.1,52.4z"/>
	<path class="st0" d="M69.3,57.6l-0.8,7.8l-1.4,3c-1-0.2-1.5-0.9-1.7-1.9l1.1-10.5l0.8-0.7L69.3,57.6z M70.6,45.3l-0.7,7.1l-2.5,2.2
		l-0.6-0.7l1-9.7L70.6,45.3z M79.6,44.5h-8.9l-2.9-1.1c0.3-1,1-1.6,2.1-1.9h11.2L79.6,44.5z M79.4,53.5l1.3,1.5l-1.6,1.5h-9.7L68,55
		l1.7-1.5H79.4z M70.1,57.2h2.2L81,67c-0.6,1-1.6,1.5-3.1,1.5l-8-9L70.1,57.2z M79.6,52.4l0.8-7.8l1.4-3c1,0.2,1.5,0.9,1.7,1.9
		l-1.1,10.5l-0.9,0.7L79.6,52.4z"/>
	<path class="st0" d="M88.7,57.6l-0.8,7.8l-1.4,3c-1-0.2-1.5-0.9-1.7-1.9l1.1-10.5l0.8-0.7L88.7,57.6z M90,45.3l-0.7,7.1l-2.5,2.2
		l-0.6-0.7l1-9.7L90,45.3z M99.1,44.5h-8.9l-2.9-1.1c0.4-1,1-1.6,2.1-1.9h11.2L99.1,44.5z M95.5,53.9l-1.7,1.5l-1.3-1.5l0.9-8.6h3
		L95.5,53.9z M100.9,55.4l0.7,0.7l-1.1,10.5c-0.3,1-1,1.6-2.1,1.9l-0.8-3l0.8-7.8L100.9,55.4z M99,52.4l0.8-7.8l1.4-3
		c1,0.2,1.5,0.9,1.7,1.9l-1.1,10.5l-0.9,0.7L99,52.4z"/>
	<path class="st0" d="M21.1,105H8.7c-1-0.2-1.5-0.9-1.7-1.9l3.1-1.1h10.1L21.1,105z M7.1,102.4l1-9.7L9,91.9l2,2.2l-0.7,7.1
		L7.1,102.4z M12.3,81.8l-0.7,7.1L9,91.2l-0.6-0.7l1-9.7L12.3,81.8z M22.4,81.1H12.4L9.5,80c0.3-1,1-1.6,2.1-1.9h12.3L22.4,81.1z"/>
	<path class="st0" d="M30.4,94.2l-0.8,7.8l-1.4,3c-1-0.2-1.5-0.9-1.7-1.9l1.1-10.5l0.8-0.7L30.4,94.2z M28.5,91.2l-0.6-0.7L28.9,80
		c0.3-1,1-1.6,2.1-1.9l0.8,3L31,88.9L28.5,91.2z M30.3,102h9l2.9,1.1c-0.3,1-1,1.6-2.1,1.9H28.9L30.3,102z"/>
	<path class="st0" d="M49.8,94.2L49,102l-1.2,1.1l-1.7-1.9l0.9-8.6l0.8-0.7L49.8,94.2z M47.9,91.2l-0.6-0.7l0.9-8.6l2.1-1.9l1,1.1
		l-0.8,7.8L47.9,91.2z M59.3,103.5l-1.6,1.5h-8.2l-1.3-1.5l1.6-1.5H58L59.3,103.5z M60.2,81.1H52l-1.3-1.5l1.6-1.5h8.2l1.3,1.5
		L60.2,81.1z M62,91.9l0.7,0.7l-0.9,8.6l-2.1,1.9l-1-1.1l0.8-7.8L62,91.9z M60.1,88.9l0.8-7.8l1.2-1.1l1.7,1.9L63,90.4l-0.9,0.7
		L60.1,88.9z"/>
	<path class="st0" d="M79.4,105H67c-1-0.2-1.5-0.9-1.7-1.9l3.1-1.1h10.1L79.4,105z M65.4,102.4l1-9.7l0.8-0.7l2,2.2l-0.7,7.1
		L65.4,102.4z M70.6,81.8l-0.7,7.1l-2.5,2.2l-0.6-0.7l1-9.7L70.6,81.8z M80.8,81.1H70.7L67.8,80c0.3-1,1-1.6,2.1-1.9h12.3L80.8,81.1
		z"/>
	<path class="st0" d="M88.7,94.2l-0.8,7.8l-1.4,3c-1-0.2-1.5-0.9-1.7-1.9l1.1-10.5l0.8-0.7L88.7,94.2z M86.8,91.2l-0.6-0.7L87.2,80
		c0.3-1,1-1.6,2.1-1.9l0.8,3l-0.8,7.8L86.8,91.2z M98.9,90l1.3,1.5L98.5,93h-9.7l-1.3-1.5l1.7-1.5H98.9z M90.2,87.1l9.9-9
		c1.5,0,2.4,0.5,2.8,1.5l-10.7,9.7H90L90.2,87.1z M100.9,91.9l0.7,0.7l-1.1,10.5c-0.3,1-1,1.6-2.1,1.9l-0.8-3l0.8-7.8L100.9,91.9z"
		/>
</g>
</svg>
