<?xml version="1.0" encoding="utf-8"?>
<!-- Generator: Adobe Illustrator 22.0.1, SVG Export Plug-In . SVG Version: 6.00 Build 0)  -->
<!DOCTYPE svg PUBLIC "-//W3C//DTD SVG 1.1//EN" "http://www.w3.org/Graphics/SVG/1.1/DTD/svg11.dtd">
<svg version="1.1" id="Layer_1" xmlns="http://www.w3.org/2000/svg" xmlns:xlink="http://www.w3.org/1999/xlink" x="0px" y="0px"
	 viewBox="0 0 17 13" style="enable-background:new 0 0 17 13;" xml:space="preserve">
<style type="text/css">
	.st0{fill:#FFFFFF;}
</style>
<g>
	<path class="st0" d="M16.8,2.8c0,0-0.2-1.3-0.7-1.8c-0.7-0.8-1.4-0.8-1.7-0.8c-2.3-0.2-5.9-0.2-5.9-0.2s-3.6,0-5.9,0.2
		c-0.3,0-1,0.1-1.7,0.8C0.3,1.6,0.2,2.8,0.2,2.8S0,4.4,0,5.8v1.4c0,1.5,0.2,2.9,0.2,2.9s0.2,1.3,0.7,1.8c0.7,0.8,1.5,0.7,1.9,0.8
		c1.4,0.3,5.8,0.3,5.8,0.3s3.6,0,5.9-0.2c0.3,0,1-0.1,1.7-0.8c0.5-0.5,0.7-1.8,0.7-1.8S17,8.7,17,7.3V5.8C17,4.4,16.8,2.8,16.8,2.8z
		 M6.4,9.9V3.6L12,6.8L6.4,9.9z"/>
</g>
</svg>
