<?xml version="1.0" encoding="utf-8"?>
<!-- Generator: Adobe Illustrator 22.1.0, SVG Export Plug-In . SVG Version: 6.00 Build 0)  -->
<!DOCTYPE svg PUBLIC "-//W3C//DTD SVG 1.1//EN" "http://www.w3.org/Graphics/SVG/1.1/DTD/svg11.dtd">
<svg version="1.1" id="Layer_1" xmlns="http://www.w3.org/2000/svg" xmlns:xlink="http://www.w3.org/1999/xlink" x="0px" y="0px"
	 viewBox="0 0 15 15" style="enable-background:new 0 0 15 15;" xml:space="preserve">
<style type="text/css">
	.st0{fill:#FFFFFF;}
</style>
<g>
	<path class="st0" d="M0,7.5L0,7.5C0,11.6,3.4,15,7.5,15h0c4.1,0,7.5-3.4,7.5-7.5v0C15,3.4,11.6,0,7.5,0h0C3.4,0,0,3.4,0,7.5z
		 M12,3.3l-1.8,8.5c0,0.2-0.3,0.3-0.4,0.2l-2.4-1.7c-0.1-0.1-0.3-0.1-0.5,0l-1.3,1.1c-0.2,0.1-0.4,0.1-0.4-0.1l-0.9-3L1.8,7.3
		c-0.2-0.1-0.2-0.4,0-0.5L11.6,3C11.8,2.9,12,3.1,12,3.3z"/>
	<path class="st0" d="M9.6,4.9L5,7.7C4.8,7.8,4.7,8.1,4.8,8.3L5.3,10c0,0.1,0.2,0.1,0.2,0l0.1-1c0-0.2,0.1-0.4,0.2-0.5L9.7,5
		C9.8,4.9,9.7,4.8,9.6,4.9z"/>
</g>
</svg>
