<svg xmlns="http://www.w3.org/2000/svg" width="54.2" height="54.2" viewBox="0 0 54.2 54.2"><style type="text/css">.st0{fill:#3468EC;} .st1{fill:#13AEF9;}</style><path class="st0" d="M27.1 54.2c-14.9 0-27.1-12.1-27.1-27.1s12.2-27.1 27.1-27.1 27.1 12.2 27.1 27.1-12.1 27.1-27.1 27.1zm0-52.3c-13.9 0-25.2 11.3-25.2 25.2s11.3 25.2 25.2 25.2 25.3-11.3 25.3-25.2-11.4-25.2-25.3-25.2z"/><path class="st1" d="M27.1 54.2c-14.9 0-27.1-12.1-27.1-27.1s12.2-27.1 27.1-27.1c7.5 0 14.8 3.2 19.9 8.7l-1.4 1.3c-4.8-5.1-11.5-8.1-18.5-8.1-13.9 0-25.2 11.3-25.2 25.2s11.3 25.2 25.2 25.2c7 0 13.7-2.9 18.5-8l1.4 1.3c-5.2 5.5-12.4 8.6-19.9 8.6zM36.7 28.3h-10.6v-16.2h1.9v14.3h8.7z"/></svg>