<?xml version="1.0" encoding="utf-8"?>
<!-- Generator: Adobe Illustrator 22.0.1, SVG Export Plug-In . SVG Version: 6.00 Build 0)  -->
<!DOCTYPE svg PUBLIC "-//W3C//DTD SVG 1.1//EN" "http://www.w3.org/Graphics/SVG/1.1/DTD/svg11.dtd">
<svg version="1.1" id="Layer_1" xmlns="http://www.w3.org/2000/svg" xmlns:xlink="http://www.w3.org/1999/xlink" x="0px" y="0px"
	 viewBox="0 0 15 15" style="enable-background:new 0 0 15 15;" xml:space="preserve">
<style type="text/css">
	.st0{fill:#FFFFFF;}
</style>
<title>Monogram</title>
<desc>Created with Sketch.</desc>
<g>
	<path class="st0" d="M0,0v15h15V0H0z M12.5,3.6l-0.8,0.8c-0.1,0.1-0.1,0.1-0.1,0.2v5.7c0,0.1,0,0.2,0.1,0.2l0.8,0.8v0.2h-4v-0.2
		l0.8-0.8c0.1-0.1,0.1-0.1,0.1-0.2V5.6l-2.3,5.7H6.8L4.2,5.6v3.9c0,0.2,0,0.3,0.1,0.4l1.1,1.3v0.2h-3v-0.2l1.1-1.3
		c0.1-0.1,0.2-0.3,0.1-0.4V5c0-0.1,0-0.2-0.1-0.3L2.5,3.6V3.4h2.9l2.3,5l2-5h2.8V3.6z"/>
</g>
</svg>
