<svg xmlns="http://www.w3.org/2000/svg" width="34.1" height="44.1" viewBox="0 0 34.1 44.1"><style type="text/css">.st0{fill:#E040FB;}</style><path class="st0" d="M2.2 19.7h.3c.7-.3 16.9-6.3 26.4-16.8v1.9c0 .4.3.8.8.8.4 0 .8-.3.8-.8l.1-4v-.30000000000000004s0-.1-.1-.1l-.1-.1h-.1l-.1-.1h-.30000000000000004l-4.2-.2c-.4 0-.8.3-.8.8 0 .4.3.8.8.8h2.5c-9.4 10.4-26 16.6-26.2 16.6-.4.1-.6.6-.5 1 .1.3.4.5.7.5zM33.4 42.6h-.9l.4-30.4c0-.4-.3-.8-.8-.8l-6.8-.1c-.2 0-.4.1-.5.2-.1.1-.2.3-.2.5l-.4 30.4h-3.1l.3-20.9c0-.4-.3-.8-.8-.8l-6.8-.1c-.2 0-.4.1-.5.2-.1.1-.2.3-.2.5l-.3 20.9h-3.1l.2-13.1c0-.4-.3-.8-.8-.8l-6.8-.1c-.2 0-.4.1-.5.2-.1.1-.2.3-.2.5l-.2 13.3h-.6c-.4 0-.8.3-.8.8 0 .4.3.8.8.8l12.8.2 6.8.1 4.6.1 6.8.1h1.6c.4 0 .8-.3.8-.8-.1-.6-.4-.9-.8-.9zm-30.3-12.8l5.3.1-.2 12.4-5.3-.1.2-12.4zm23-17l5.3.1-.4 29.7-5.3-.1.4-29.7zm-11.5 9.4l5.3.1-.3 20.1-5.3-.1.3-20.1z"/></svg>