<svg xmlns="http://www.w3.org/2000/svg" width="40" height="32.9" viewBox="0 0 40 32.9"><style type="text/css">.st0{fill:#09ceff;}</style><path class="st0" d="M36.4 2.8h-7.7c-.4-1.6-1.8-2.8-3.5-2.8h-10.4c-1.7 0-3.2 1.2-3.5 2.8h-7.7c-2 0-3.6 1.6-3.6 3.6v22.9c0 2 1.6 3.6 3.6 3.6h32.8c2 0 3.6-1.6 3.6-3.6v-22.9c0-2-1.6-3.6-3.6-3.6zm-21.6-1.3h10.4c.9 0 1.6.5 1.9 1.3h-14.2c.3-.7 1-1.3 1.9-1.3zm-11.2 2.9h32.8c1.1 0 2.1.9 2.1 2.1v8.5h-12.9c-.4-1.6-1.8-2.8-3.5-2.8h-4.1c-1.7 0-3.2 1.2-3.5 2.8h-13v-8.6c0-1.1 1-2 2.1-2zm20 12.1h.4c-.3.8-1 1.3-1.9 1.3h-4.1c-.9 0-1.6-.5-1.9-1.3h.5c.4 0 .8-.3.8-.8s-.3-.8-.8-.8h-.6c.3-.8 1-1.3 1.9-1.3h4.1c.9 0 1.6.5 1.9 1.3h-.4c-.4 0-.8.3-.8.8s.5.8.9.8zm12.8 14.8h-32.8c-1.1 0-2.1-.9-2.1-2.1v-12.7h12.9c.4 1.6 1.8 2.8 3.5 2.8h4.1c1.7 0 3.2-1.2 3.5-2.8h12.9v12.8c.1 1.1-.9 2-2 2zM35.2 22.4c-.4 0-.8.3-.8.8v4.2h-29.6c-.4 0-.8.3-.8.8s.3.8.8.8h30.4c.4 0 .8-.3.8-.8v-5c0-.5-.4-.8-.8-.8z"/></svg>