<svg xmlns="http://www.w3.org/2000/svg" width="43.8" height="32.9" viewBox="0 0 43.8 32.9"><style type="text/css">.st0{fill:#09ceff;}</style><path class="st0" d="M9.6 18.3c0 .2.1.3.2.5l5.3 5.2c.1.1.3.2.5.2s.3-.1.5-.2c.3-.3.2-.7 0-.9l-4.8-4.8 4.8-4.8c.3-.3.3-.7 0-.9-.3-.3-.7-.3-.9 0l-5.3 5.2c-.2.2-.3.3-.3.5zM25.3 24c.1.1.3.2.5.2s.3-.1.5-.2l5.3-5.2c.1-.1.2-.3.2-.5s-.1-.3-.2-.5l-5.3-5.2c-.3-.3-.7-.3-.9 0-.3.3-.2.7 0 .9l4.8 4.8-4.8 4.8c-.4.2-.4.6-.1.9zM18.5 26.5h.2c.3 0 .6-.2.6-.5l3.7-14.7c.1-.3-.1-.7-.5-.8-.3-.1-.7.1-.8.5l-3.7 14.8c0 .3.2.6.5.7zM43.2 2.6h-25.4l-1.4-2.3c-.1-.2-.3-.3-.6-.3h-12.6c-.4 0-.7.3-.7.6v1.9h-1.9c-.3 0-.6.3-.6.7v29c0 .4.3.6.6.6h40c.4 0 .6-.3.6-.6v-1.9h1.9c.4 0 .6-.3.6-.6v-26.5c.1-.3-.2-.6-.5-.6zm-3.2 29h-38.7v-27.8h11.6l1.4 2.3c.1.2.3.3.5.3h25.2v25.2zm2.5-2.6h-1.2v-23.2c0-.4-.3-.6-.6-.6h-25.4l-1.4-2.3c-.1-.2-.3-.3-.5-.3h-9.6v-1.3h11.6l1.4 2.3c.1.2.3.3.5.3h25.1v25.1z"/></svg>