<svg xmlns="http://www.w3.org/2000/svg" width="30.5" height="41" viewBox="0 0 30.5 41"><style type="text/css">.st0{fill:#E040FB;}</style><path class="st0" d="M22.8 0h-15.1c-4.2 0-7.7 3.5-7.7 7.7v25.5c0 .4.3.7.7.7h3.9l-3 4.2-1.2 1.6c-.2.3-.2.8.2 1 .3.2.4.3.6.3.2 0 .5-.1.6-.3l.9-1.3h25.1l.9 1.3c.1.2.4.3.6.3.1 0 .3 0 .4-.1.3-.2.4-.7.2-1l-4.1-5.9h3.9c.4 0 .7-.3.7-.7v-25.6c.1-4.2-3.3-7.7-7.6-7.7zm-3.7 11.4c-.3-.3-.8-.2-1.1.1l-6.5 7.4h-2.4l2.3-2.6c.3-.3.2-.8-.1-1.1-.3-.2-.7-.2-1 .1l-3.1 3.6h-5.7v-7.8h27.5v7.8h-15.5l5.6-6.4c.3-.3.3-.8 0-1.1zm-11.4-9.9h15.1c3.4 0 6.2 2.8 6.2 6.2v1.9h-27.5v-1.9c0-3.4 2.8-6.2 6.2-6.2zm-3.9 36.3l1.1-1.6h20.8l1.1 1.6h-23zm20.3-3.8l.5.8h-18.7l.6-.8v-.1l17.6.1zm-22.6-1.6v-12h27.5v12.1h-27.5zM7.5 23.2c-1.7 0-3.1 1.4-3.1 3.1 0 1.7 1.4 3.1 3.1 3.1s3.1-1.4 3.1-3.1c0-1.7-1.4-3.1-3.1-3.1zm0 4.7c-.9 0-1.6-.7-1.6-1.6 0-.9.7-1.6 1.6-1.6s1.6.7 1.6 1.6c0 .9-.7 1.6-1.6 1.6zM23 23.2c-1.7 0-3.1 1.4-3.1 3.1 0 1.7 1.4 3.1 3.1 3.1 1.7 0 3.1-1.4 3.1-3.1 0-1.7-1.4-3.1-3.1-3.1zm0 4.7c-.9 0-1.6-.7-1.6-1.6 0-.9.7-1.6 1.6-1.6.9 0 1.6.7 1.6 1.6 0 .9-.7 1.6-1.6 1.6zM10.8 5.4h8.8c.4 0 .7-.3.7-.7 0-.4-.3-.7-.7-.7h-8.8c-.4 0-.7.3-.7.7 0 .4.3.7.7.7z"/></svg>