<?xml version="1.0" encoding="utf-8"?>
<!-- Generator: Adobe Illustrator 22.0.1, SVG Export Plug-In . SVG Version: 6.00 Build 0)  -->
<!DOCTYPE svg PUBLIC "-//W3C//DTD SVG 1.1//EN" "http://www.w3.org/Graphics/SVG/1.1/DTD/svg11.dtd">
<svg version="1.1" id="Capa_1" xmlns="http://www.w3.org/2000/svg" xmlns:xlink="http://www.w3.org/1999/xlink" x="0px" y="0px"
	 viewBox="0 0 16 13" style="enable-background:new 0 0 16 13;" xml:space="preserve">
<style type="text/css">
	.st0{fill:#FFFFFF;}
</style>
<g>
	<g>
		<path class="st0" d="M16,6c0-1.1-0.9-2-2-2c-0.4,0-0.9,0.1-1.2,0.4c-1.1-0.8-2.6-1.2-4.1-1.3l0.8-2L12,1.7C12,2.4,12.7,3,13.4,3
			c0.8,0,1.5-0.7,1.5-1.5S14.3,0,13.4,0c-0.5,0-1,0.3-1.2,0.7L9.4,0C9.1,0,8.9,0.1,8.8,0.3L7.6,3C6,3.1,4.4,3.6,3.2,4.4
			C2.8,4.1,2.4,4,2,4C0.9,4,0,4.9,0,6c0,0.7,0.4,1.4,1,1.7C1,7.8,1,7.9,1,8c0,2.7,3.1,5,7,5c3.8,0,7-2.2,7-5c0-0.1,0-0.2,0-0.2
			C15.6,7.4,16,6.8,16,6z M13.4,1c0.3,0,0.5,0.2,0.5,0.5S13.7,2,13.4,2c-0.3,0-0.5-0.2-0.5-0.5S13.2,1,13.4,1z M4.5,7.5
			c0-0.5,0.4-1,1-1s1,0.4,1,1c0,0.5-0.4,1-1,1S4.5,8,4.5,7.5z M10.3,10.8c-0.7,0.5-1.5,0.7-2.3,0.7s-1.6-0.2-2.3-0.7
			c-0.2-0.2-0.3-0.5-0.1-0.7C5.7,9.9,6,9.8,6.2,10c1,0.7,2.4,0.7,3.4,0c0.2-0.2,0.5-0.1,0.7,0.1C10.5,10.3,10.5,10.6,10.3,10.8z
			 M10.5,8.5c-0.5,0-1-0.4-1-1c0-0.5,0.4-1,1-1s1,0.4,1,1C11.4,8,11,8.5,10.5,8.5z"/>
	</g>
</g>
</svg>
