<svg xmlns="http://www.w3.org/2000/svg" width="17.2" height="16.8" viewBox="0 0 17.2 16.8"><style type="text/css">.st0{fill-rule:evenodd;clip-rule:evenodd;fill:#FFFFFF;}</style><path class="st0" d="M8.6 0c-4.8 0-8.6 3.8-8.6 8.6 0 3.8 2.5 7 5.9 8.2.4.1.6-.2.6-.4v-1.5c-2.4.5-2.9-1.2-2.9-1.2-.4-1-1-1.3-1-1.3-.8-.5.1-.5.1-.5.8.1 1.3.9 1.3.9.8 1.3 2 .9 2.5.7.1-.5.3-.9.5-1.1-1.9-.2-3.9-1-3.9-4.2 0-.9.3-1.7.9-2.3-.1-.3-.4-1.2.1-2.3 0 0 .7-.2 2.4.9.7-.2 1.4-.3 2.2-.3.7 0 1.5.1 2.2.3 1.6-1.1 2.4-.9 2.4-.9.5 1.2.2 2.1.1 2.3.6.6.9 1.4.9 2.3 0 3.3-2 4-3.9 4.2.3.3.6.8.6 1.6v2.4c0 .2.2.5.6.4 3.4-1.1 5.9-4.4 5.9-8.1-.3-4.9-4.2-8.7-8.9-8.7z"/></svg>