<svg xmlns="http://www.w3.org/2000/svg" width="60.1" height="60.1" viewBox="0 0 60.1 60.1"><style type="text/css">.st0{opacity:0.14;} .st1{fill:#231F20;} .st2{fill:#FFFFFF;}</style><path class="st1" d="M30.1 60.1c-16.6 0-30-13.5-30-30s13.5-30 30-30 30 13.5 30 30-13.5 30-30 30zm0-57.8c-15.3 0-27.7 12.5-27.7 27.7s12.4 27.7 27.7 27.7 27.7-12.4 27.7-27.7-12.5-27.7-27.7-27.7z"/><path class="st2" d="M30 60.1c-16.6 0-30-13.5-30-30s13.5-30.1 30-30.1c8.3 0 16.3 3.5 22 9.6l-1.7 1.6c-5.2-5.6-12.6-8.9-20.3-8.9-15.2 0-27.7 12.5-27.7 27.7s12.5 27.7 27.7 27.7c7.7 0 15-3.2 20.3-8.8l1.7 1.6c-5.7 6.1-13.7 9.6-22 9.6zM40.6 31.5h-11.8v-18.1h2.3v15.8h9.5z"/></svg>