<?xml version="1.0" encoding="utf-8"?>
<!-- Generator: Adobe Illustrator 23.0.1, SVG Export Plug-In . SVG Version: 6.00 Build 0)  -->
<svg version="1.1" id="Layer_1" xmlns="http://www.w3.org/2000/svg" xmlns:xlink="http://www.w3.org/1999/xlink" x="0px" y="0px"
	 viewBox="0 0 240 60" style="enable-background:new 0 0 240 60;" xml:space="preserve">
<style type="text/css">
	.st0{fill:#FFFFFF;}
</style>
<g>
	<g>
		<path class="st0" d="M29.7,1.5C14,1.5,1.2,14.3,1.2,30S14,58.5,29.7,58.5S58.2,45.7,58.2,30S45.4,1.5,29.7,1.5z M39.9,39.2
			l-7.3,7.5c-1.5,1.6-4.1,1.6-5.7,0l-7.3-7.5c-1.6-1.5-1.6-4.3,0-5.9c1-1,2.6-1,3.6,0l3.8,3.8c1.5,1.6,4.1,1.6,5.7,0l3.6-3.8
			c1-1,2.6-1,3.6,0C41.5,34.8,41.5,37.6,39.9,39.2z M47.8,27.3c-1,1-2.6,1-3.6,0l-3.6-3.6c-1.5-1.4-3.9-1.4-5.5,0.2l-3.2,3.8
			c-0.9,0.9-2.3,1-3.3,0.2c-0.2-0.1-0.4-0.2-0.6-0.4l-3.6-3.6c-1.5-1.4-3.9-1.4-5.5,0.2l-3.4,3.8c-1,1-2.6,1-3.6,0
			c-1.6-1.5-1.6-4.1,0-5.7l7.3-7.5c1.5-1.6,3.9-1.6,5.5,0l5.3,5.5l5.4-5.5c1.5-1.6,3.9-1.6,5.5,0l6.9,6.9
			C49.4,23.1,49.4,25.7,47.8,27.3z"/>
	</g>
	<path class="st0" d="M97,20.9L89.1,31h-0.2h-1h-0.2l-7.9-10.1c0-0.2-0.2-0.2-0.4,0v0.2v19c0,0.2-0.2,0.2-0.2,0.2H76
		c-0.2,0-0.2-0.2-0.2-0.2V13.8c0-0.2,0.2-0.2,0.2-0.2h2.4h0.2L88.3,26c0,0.2,0.2,0.2,0.4,0l0,0l9.7-12.7h0.2h2.4
		c0.2,0,0.2,0.2,0.2,0.2v26.3c0,0.2-0.2,0.2-0.2,0.2h-3.2c-0.2,0-0.2-0.2-0.2-0.2v-19C97.6,20.9,97.4,20.7,97,20.9
		C97.2,20.7,97.2,20.7,97,20.9z M111.9,47.2h-3.4c-0.2,0-0.2,0-0.2-0.2c0,0,0,0,0-0.2l3.6-7.7v-0.2L104,21.7c0-0.2,0-0.2,0.2-0.4
		c0,0,0,0,0.2,0h3.6c0.2,0,0.2,0,0.2,0.2l5.3,13.1c0.2,0.4,0.4,0.8,0.4,1.4h0.2c0-0.4,0.2-0.8,0.2-1.4l0,0l5.3-13.1l0.2-0.2h3.2
		c0.2,0,0.2,0,0.2,0.2c0,0,0,0,0,0.2L112.1,47C112.1,47.2,112.1,47.2,111.9,47.2z M148.9,37.3c0,0,0,0.2,0,0.4l-0.2,0.2
		c-0.4,0.4-0.6,0.6-1,0.8c-0.6,0.4-1.2,0.8-1.8,1c-0.8,0.4-1.6,0.6-2.6,0.8s-2.2,0.4-3.4,0.4c-4,0-7.1-1.4-9.7-4
		c-2.6-2.8-3.8-5.9-3.8-10.1c0-4,1.2-7.3,3.8-10.1s5.7-4,9.7-4c1.8,0,3.4,0.2,4.9,0.8c1.6,0.6,2.6,1.2,3.2,1.8l0.8,0.8
		c0,0,0.2,0.2,0,0.4l-1.8,2.4c0,0.2-0.2,0.2-0.4,0l0,0h-0.2c0-0.4-0.4-0.6-0.8-0.8c-0.4-0.4-1-0.6-1.4-0.8c-0.6-0.2-1.2-0.6-1.8-0.6
		c-0.8-0.2-1.6-0.2-2.4-0.2c-2.8,0-5.1,1-6.9,3s-2.8,4.6-2.8,7.5s1,5.5,2.8,7.5s4.2,3,6.9,3c1.2,0,2.4-0.2,3.6-0.8
		c1.2-0.4,2-1,2.4-1.4l0,0l0.6-0.6c0,0,0.2-0.2,0.4,0l0,0L148.9,37.3L148.9,37.3z M162.6,24.1c0,0.2-0.2,0.2-0.2,0.2h-1.8
		c-1.4,0-2.6,0.6-3.4,1.4c-1.2,1.2-1.6,2.4-1.6,3.8V40c0,0.2-0.2,0.2-0.2,0.2h-3.2c-0.2,0-0.2-0.2-0.2-0.2V21.5
		c0-0.2,0.2-0.2,0.2-0.2h2.4c0.2,0,0.2,0.2,0.2,0.2v3h0.2c0.4-1,1.2-1.8,2.2-2.4s2.2-0.8,3.4-0.8h1.8c0.2,0,0.2,0.2,0.2,0.2
		C162.4,21.7,162.6,24.1,162.6,24.1z M172.2,47.2h-3.4c-0.2,0-0.2,0-0.2-0.2c0,0,0,0,0-0.2l3.6-7.7v-0.2l-7.9-17.2
		c0-0.2,0-0.2,0-0.4c0,0,0,0,0.2,0h3.6c0.2,0,0.2,0,0.2,0.2l5.3,13.1c0.2,0.6,0.6,1,0.6,1.4H174c0-0.4,0.4-0.8,0.4-1.4l5.3-13.1
		l0.2-0.2h3.4c0.2,0,0.2,0,0.2,0.2c0,0,0,0,0,0.2L172.4,47C172.4,47.2,172.2,47.2,172.2,47.2L172.2,47.2z M189.1,37.9V47
		c0,0.2-0.2,0.2-0.2,0.2h-3.2c-0.2,0-0.2-0.2-0.2-0.2V21.7c0-0.2,0.2-0.2,0.2-0.2h2.4c0.2,0,0.2,0.2,0.2,0.2v2.6h0.2
		c0,0,0.2,0,0.2-0.2l0.2-0.2c0.2-0.2,0.4-0.6,0.8-0.8c0.4-0.4,0.8-0.8,1.4-1c0.6-0.4,1.2-0.6,2-0.8c0.8-0.2,1.8-0.4,2.6-0.4
		c2.4,0,4.8,1,6.3,2.8c1.6,1.8,2.6,4.2,2.6,7.1s-0.8,5.3-2.6,7.1c-1.6,1.8-3.8,2.8-6.1,2.8c-0.8,0-1.8,0-2.6-0.2
		c-0.6-0.2-1.2-0.4-1.8-0.8c-0.4-0.2-0.8-0.6-1.2-0.8c-0.2-0.2-0.4-0.4-0.6-0.6l0,0L189.1,37.9L189.1,37.9z M190.5,35.7
		c1.2,1.4,2.8,2,4.6,1.8c1.2,0,2.6-0.6,3.4-1.4c1.4-1.4,2-3.2,2-5.3c0-2-0.6-3.6-1.6-4.9c-1-1.2-2.6-2-4.2-2c-1.6,0-3.2,0.6-4.2,1.8
		c-1.2,1.2-1.8,3-1.8,4.9C188.7,32.5,189.5,34.6,190.5,35.7z M208.7,21.1V16c0-0.2,0.2-0.2,0.2-0.2h3.2c0.2,0,0.2,0.2,0.2,0.2v5.1
		c0,0.2,0.2,0.2,0.2,0.2h4.9c0.2,0,0.2,0.2,0.2,0.2v2.6c0,0.2-0.2,0.2-0.2,0.2h-4.9c-0.2,0-0.2,0.2-0.2,0.2v10.1
		c0,2,0.8,2.8,2.6,2.8c0.4,0,0.8,0,1.2-0.2s0.6-0.2,1-0.4h0.2c0.2,0,0.2,0,0.4,0.2l0,0l1,2.2c0,0.2,0,0.2,0,0.2
		c-0.2,0.2-0.4,0.2-0.6,0.4c-0.4,0.2-0.8,0.4-1.2,0.4c-0.8,0.2-1.8,0.4-2.8,0.4c-1.8,0-3.2-0.6-4-1.6c-1-1-1.4-2.6-1.4-4.4V24.3
		c0-0.2-0.2-0.2-0.2-0.2h-3c-0.2,0-0.2-0.2-0.2-0.2v-2.4c0-0.2,0.2-0.2,0.2-0.2h3C208.5,21.5,208.7,21.3,208.7,21.1L208.7,21.1
		L208.7,21.1z M236,37.9c-1.8,1.8-4.2,2.8-6.7,2.8c-2.8,0-4.9-1-6.7-2.8s-2.8-4.2-2.8-7.1s1-5.3,2.8-7.1s4.2-2.8,6.7-2.8
		s4.9,1,6.7,2.8s2.8,4.2,2.8,7.1S237.8,36.1,236,37.9L236,37.9z M233.4,35.9c1.2-1.2,1.8-3,1.8-4.9c0-1.9-0.6-3.8-1.8-4.9
		c-1-1.2-2.6-2-4.2-2c-1.6,0-3.2,0.6-4.2,2c-1.2,1.2-1.8,3-1.8,5.1s0.6,3.8,1.8,4.9c2.2,2.4,5.7,2.6,8.1,0.4
		C233.2,36.1,233.2,35.9,233.4,35.9L233.4,35.9z"/>
</g>
</svg>
