<svg xmlns="http://www.w3.org/2000/svg" viewBox="0 0 32.3 32.3" enable-background="new 0 0 32.3 32.3"><style type="text/css">.st0{opacity:0.14;enable-background:new ;} .st1{fill:none;} .st2{opacity:0.14;fill:#231F20;} .st3{fill:#0050FF;}</style><circle class="st1" cx="16.1" cy="16.1" r="15.5"/><path class="st2" d="M16.2 32.2c-8.9 0-16.1-7.2-16.1-16.1 0-8.9 7.2-16.1 16.1-16.1 8.9 0 16.1 7.2 16.1 16.1 0 8.9-7.2 16.1-16.1 16.1zm0-31c-8.2 0-14.9 6.7-14.9 14.9s6.7 14.9 14.9 14.9 14.9-6.7 14.9-14.9-6.7-14.9-14.9-14.9z"/><path class="st3" d="M16.2 32.2c-8.9 0-16.1-7.2-16.1-16.1 0-8.9 7.2-16.1 16-16.1 4.5 0 8.7 1.8 11.8 5.1l-.9.9c-2.9-3-6.8-4.7-11-4.7-8-.1-14.7 6.6-14.7 14.8 0 8.2 6.7 14.9 14.9 14.9 4.1 0 8.1-1.7 10.8-4.7l.9.9c-3 3.2-7.3 5-11.7 5zM21.8 16.9h-6.3v-9.7h1.2v8.5h5.1z"/></svg>