<svg xmlns="http://www.w3.org/2000/svg" width="152.4" height="300.1" viewBox="0 0 152.4 300.1"><style type="text/css">.st0{fill:#0050FF;} .st1{opacity:0.14;fill:#231F20;} .st2{opacity:0.15;fill:#FFFFFF;} .st3{opacity:5.000000e-02;fill:#0050FF;}</style><path class="st0" d="M79.4 295.1l-5 5-5-5z"/><path class="st1" d="M73.8 195.4c-30.7 0-55.7-25-55.7-55.7s25-55.7 55.7-55.7c30.7 0 55.7 25 55.7 55.7s-25 55.7-55.7 55.7zm0-109.5c-29.6 0-53.8 24.1-53.8 53.8s24.1 53.8 53.8 53.8 53.8-24.1 53.8-53.8-24.2-53.8-53.8-53.8z"/><path class="st0" d="M73.8 195.3c-30.7 0-55.7-25-55.7-55.7s25-55.6 55.7-55.6c15.4 0 30.3 6.5 40.8 17.8l-1.4 1.3c-10.2-10.9-24.5-17.2-39.4-17.2-29.6 0-53.8 24.1-53.8 53.8s24.1 53.8 53.8 53.8c14.9 0 29.2-6.2 39.3-17.1l1.4 1.3c-10.5 11.2-25.3 17.6-40.7 17.6zM93.8 141.2h-21v-33h1.9v31.1h19.1zM122 225.4h-97.8c-13.4 0-24.2-10.9-24.2-24.2v-123.1c0-13.3 10.8-24.1 24.2-24.1h97.8c13.3 0 24.2 10.8 24.2 24.2v17.7h-1.9v-17.8c0-12.3-10-22.3-22.3-22.3h-97.8c-12.3 0-22.3 10-22.3 22.3v123.1c0 12.3 10 22.3 22.3 22.3h97.8c12.3 0 22.3-10 22.3-22.3v-83.6h1.9v83.6c-.1 13.3-10.9 24.2-24.2 24.2zM122 218.6h-97.8c-9.6 0-17.4-7.8-17.4-17.4v-123.1c0-9.6 7.8-17.4 17.4-17.4h97.8c9.6 0 17.4 7.8 17.4 17.4v123.1c-.1 9.6-7.9 17.4-17.4 17.4zm-97.8-155.9c-8.5 0-15.5 6.9-15.5 15.5v123.1c0 8.5 6.9 15.5 15.5 15.5h97.8c8.5 0 15.5-6.9 15.5-15.5v-123.2c0-8.5-6.9-15.5-15.5-15.5h-97.8zM144.8 188v-1.9c1.5 0 2.6-1.2 2.6-2.6v-34.4c0-1.5-1.2-2.6-2.6-2.6v-1.9c2.5 0 4.5 2 4.5 4.5v34.4c0 2.5-2 4.5-4.5 4.5zM148.7 120.2c-3.4 0-8-4.7-8-13.6s4.7-13.6 8-13.6c3.7 0 3.7 2.5 3.7 4.3v18.5c0 1.9 0 4.4-3.7 4.4zm0-25.2c-2.2 0-6.1 3.9-6.1 11.7s3.9 11.7 6.1 11.7c1.8 0 1.8-.5 1.8-2.4v-18.6c0-1.9 0-2.4-1.8-2.4z"/><path class="st2" d="M141.6 106.7c0 8.4 4.3 12.6 7.1 12.6s2.8-1.5 2.8-3.3v-18.6c0-1.8 0-3.3-2.8-3.3s-7.1 4.2-7.1 12.6z"/><path class="st0" d="M151.5 99.4h-3.8c-.5 0-1-.4-1-1s.4-1 1-1h3.8c.5 0 1 .4 1 1s-.5 1-1 1zM151.5 102.1h-3.8c-.5 0-1-.4-1-1s.4-1 1-1h3.8c.5 0 1 .4 1 1s-.5 1-1 1zM151.5 104.9h-3.8c-.5 0-1-.4-1-1s.4-1 1-1h3.8c.5 0 1 .4 1 1s-.5 1-1 1zM151.5 107.6h-3.8c-.5 0-1-.4-1-1s.4-1 1-1h3.8c.5 0 1 .4 1 1s-.5 1-1 1zM151.5 110.3h-3.8c-.5 0-1-.4-1-1s.4-1 1-1h3.8c.5 0 1 .4 1 1s-.5 1-1 1zM151.5 113.1h-3.8c-.5 0-1-.4-1-1s.4-1 1-1h3.8c.5 0 1 .4 1 1s-.5 1-1 1zM151.5 115.8h-3.8c-.5 0-1-.4-1-1s.4-1 1-1h3.8c.5 0 1 .4 1 1s-.5 1-1 1zM104.8 279.4h-62.5c-7 0-12.7-5.7-12.7-12.7 0-.1-1.6-20.3-2.3-26.6-1.1-10-6.4-14.8-6.5-14.8l1.3-1.4c.2.2 5.9 5.3 7.1 16.1.7 6.4 2.3 26.6 2.3 26.8 0 6 4.9 10.9 10.8 10.9h62.5c6 0 10.8-4.9 10.8-10.8 0-.3 1.6-20.4 2.3-26.8 1.2-10.8 6.9-15.8 7.1-16.1l1.3 1.4c-.1 0-5.4 4.9-6.5 14.8-.7 6.4-2.2 26.5-2.3 26.7 0 6.7-5.7 12.5-12.7 12.5zM124.5 55.6c-.2-.2-5.9-5.3-7.1-16.1-.7-6.4-2.3-26.6-2.3-26.8 0-6-4.9-10.9-10.8-10.9h-62.5c-6 0-10.8 4.9-10.8 10.8 0 .3-1.6 20.4-2.3 26.8-1.2 10.8-6.9 15.8-7.1 16.1l-1.3-1.4.6.7-.6-.7c.1 0 5.4-4.9 6.5-14.8.7-6.4 2.2-26.5 2.3-26.7 0-6.9 5.7-12.6 12.7-12.6h62.5c7 0 12.7 5.7 12.7 12.7 0 .1 1.6 20.3 2.3 26.6 1.1 10 6.4 14.8 6.5 14.8l-1.3 1.5z"/><path class="st3" d="M22.3 61.7c-1.6.1-3.1.4-4.5 1l118.6 144.9c.7-1.6 1.1-3.2 1.2-5l-115.3-140.9zM7.7 78.1l114.3 139.5c3.7 0 7.2-1.3 9.9-3.4l-120.2-146.8c-2.5 2.9-4 6.6-4 10.7z"/></svg>