<svg xmlns="http://www.w3.org/2000/svg" width="2561.9" height="1165" viewBox="0 0 2561.9 1165"><style type="text/css">.st0{fill:#FAFCFF;} .st1{fill:#0050FF;} .st2{opacity:0.1;fill:#0050FF;}</style><path class="st0" d="M2280.1 102l-994.6 345-1284.5-446.1v1163.1h2560v-1062z"/><path class="st1" d="M821.2 946.9c-.4 0-.8-.2-.9-.6-.2-.5.1-1 .6-1.2l1328-461.2c.5-.2 1 .1 1.2.6.2.5-.1 1-.6 1.2l-1328 461.2h-.3zM1 1163.3c-.4 0-.8-.2-.9-.6-.2-.5.1-1 .6-1.2l1672-580.6c.5-.2 1 .1 1.2.6.2.5-.1 1-.6 1.2l-1672 580.5-.3.1zM698.8 526.9c-.4 0-.8-.2-.9-.6-.2-.5.1-1 .6-1.2l586.7-203.7c.5-.2 1 .1 1.2.6.2.5-.1 1-.6 1.2l-586.7 203.7h-.3zM979.9 1165c-.4 0-.8-.2-.9-.6-.2-.5.1-1 .6-1.2l693-240.6c.5-.2 1 .1 1.2.6.2.5-.1 1-.6 1.2l-693 240.6c-.1-.1-.2 0-.3 0zM334.9 778.4c-.4 0-.8-.2-.9-.6-.2-.5.1-1 .6-1.2l950.1-329.9c.1-.2.3-.4.5-.5l994.6-345.1c.5-.2 1 .1 1.2.6.2.5-.1 1-.6 1.2l-1945.2 675.4c-.1.1-.2.1-.3.1zM1242.9 656.6c-.1 0-.2 0-.3-.1l-1241.8-431.1c-.5-.2-.8-.7-.6-1.2.2-.5.7-.8 1.2-.6l1241.8 431.2c.5.2.8.7.6 1.2-.1.4-.5.6-.9.6zM1266.1 723.9c-.1 0-.2 0-.3-.1l-1265-439.2c-.5-.2-.8-.7-.6-1.2.2-.5.7-.8 1.2-.6l1265 439.3c.5.2.8.7.6 1.2-.1.4-.5.6-.9.6zM1257 1098.6c-.1 0-.2 0-.3-.1l-1255.9-436.1c-.5-.2-.8-.7-.6-1.2.2-.5.7-.8 1.2-.6l1255.9 436.1c.5.2.8.7.6 1.2-.2.5-.5.7-.9.7zM1936 411.8c-.4 0-.8-.2-.9-.6-.2-.5.1-1 .6-1.2l567.6-197.1c.5-.2 1 .1 1.2.6.2.5-.1 1-.6 1.2l-567.6 197.1h-.3zM1771.8 616.8c-.1 0-.2 0-.3-.1l-1770.9-614.9c-.5-.1-.7-.7-.5-1.2.2-.5.7-.8 1.2-.6l1770.8 615c.5.2.8.7.6 1.2-.2.4-.5.6-.9.6zM2560.9 629.3c-.1 0-.2 0-.3-.1l-898.4-312c-.5-.2-.8-.7-.6-1.2.2-.5.7-.8 1.2-.6l898.4 312c.5.2.8.7.6 1.2-.1.5-.5.7-.9.7z"/><ellipse class="st2" cx="1284.3" cy="322.6" rx="31.7" ry="4.2"/><ellipse class="st1" cx="1284.3" cy="322.6" rx="7.3" ry="1"/></svg>